<?xml version="1.0" standalone="no"?>
<!DOCTYPE svg PUBLIC "-//W3C//DTD SVG 20010904//EN"
 "http://www.w3.org/TR/2001/REC-SVG-20010904/DTD/svg10.dtd">
<svg version="1.0" xmlns="http://www.w3.org/2000/svg"
 width="2000.000000pt" height="2000.000000pt" viewBox="0 0 2000.000000 2000.000000"
 preserveAspectRatio="xMidYMid meet">

<g transform="translate(0.000000,2000.000000) scale(0.100000,-0.100000)"
fill="#000000" stroke="none">
<path d="M9645 16194 c-375 -28 -700 -74 -994 -139 -1573 -349 -2957 -1309
-3843 -2665 -556 -851 -883 -1785 -984 -2813 -21 -215 -29 -721 -15 -947 115
-1837 1005 -3490 2476 -4595 719 -541 1538 -911 2440 -1105 368 -79 707 -117
1150 -126 1136 -26 2218 249 3202 812 1305 746 2304 1954 2789 3368 210 614
315 1207 331 1866 24 1033 -188 1990 -642 2905 -598 1204 -1562 2177 -2755
2779 -707 357 -1356 547 -2200 642 -137 15 -819 28 -955 18z m980 -63 c521
-58 963 -156 1400 -310 1075 -378 1990 -1015 2726 -1897 661 -791 1127 -1796
1314 -2834 116 -643 125 -1378 25 -2035 -152 -991 -567 -1972 -1171 -2765
-1066 -1400 -2610 -2260 -4361 -2427 -223 -21 -824 -24 -1048 -5 -1332 115
-2527 613 -3525 1468 -256 219 -591 564 -786 809 -634 796 -1055 1702 -1248
2685 -70 360 -101 662 -108 1080 -7 437 20 791 92 1190 321 1780 1399 3319
2970 4240 200 117 567 295 800 388 606 241 1166 373 1820 427 250 21 859 13
1100 -14z"/>
<path d="M9700 15611 c-74 -4 -130 -8 -124 -9 7 -1 19 -17 28 -36 14 -29 16
-80 16 -349 0 -303 -1 -315 -21 -341 l-20 -26 95 0 96 0 -20 33 c-17 27 -20
50 -20 155 l0 122 124 0 123 0 83 -106 c112 -144 159 -175 303 -199 34 -5 37
-4 37 18 0 20 -8 27 -45 37 -63 18 -104 52 -184 155 l-70 90 27 6 c91 19 153
82 172 175 22 107 -25 211 -117 255 -43 21 -63 23 -198 25 -82 0 -211 -2 -285
-5z m430 -114 c45 -22 70 -63 70 -114 0 -42 -19 -70 -65 -99 -25 -16 -56 -20
-217 -24 l-189 -5 3 115 3 115 35 18 c30 16 55 18 180 15 112 -3 153 -8 180
-21z"/>
<path d="M10946 15478 c-377 -590 -375 -587 -427 -609 -17 -6 -28 -13 -26 -15
3 -3 242 -54 253 -54 2 0 -8 22 -23 49 l-27 48 49 76 c35 54 56 77 70 76 11 0
96 -15 189 -33 191 -36 175 -25 196 -144 13 -70 13 -73 -10 -97 -13 -14 -31
-27 -42 -31 -37 -11 -15 -21 105 -42 149 -27 145 -27 120 1 -41 44 -53 88
-118 433 -36 192 -68 350 -70 353 -5 4 -173 40 -193 41 -7 0 -27 -24 -46 -52z
m150 -71 c4 -4 62 -312 59 -315 -3 -3 -288 49 -293 54 -2 1 36 64 84 139 85
134 88 137 117 131 17 -3 32 -7 33 -9z"/>
<path d="M8455 15399 c-154 -44 -286 -81 -293 -84 -9 -3 -3 -14 17 -32 27 -25
39 -59 111 -313 80 -284 89 -334 70 -371 -8 -14 -7 -19 2 -19 7 0 146 38 308
83 l295 83 -3 85 c-1 46 -5 100 -8 119 l-6 35 -35 -70 c-19 -38 -40 -75 -46
-82 -12 -12 -319 -103 -348 -103 -39 0 -66 38 -89 125 -13 47 -21 87 -19 89 9
8 230 66 253 66 14 0 37 -5 51 -10 23 -9 26 -8 21 5 -3 9 -13 44 -22 78 -9 34
-18 65 -21 70 -2 4 -18 -4 -34 -17 -16 -14 -60 -34 -97 -45 -155 -45 -177 -50
-183 -43 -15 16 -46 159 -39 177 14 37 44 51 194 94 l150 42 40 -17 c23 -10
58 -29 79 -41 20 -13 37 -21 37 -18 0 7 -78 151 -94 176 -10 14 -42 7 -291
-62z"/>
<path d="M11786 15297 c6 -40 -4 -71 -101 -318 -59 -151 -112 -282 -117 -292
-5 -10 -23 -27 -41 -37 l-31 -19 25 -9 c13 -6 53 -21 88 -36 36 -14 65 -26 66
-26 1 0 0 21 -2 48 -4 39 3 67 42 165 26 64 49 117 51 117 7 0 208 -81 235
-96 16 -8 35 -27 43 -42 l14 -27 10 25 c6 14 19 49 31 78 12 29 21 55 21 57 0
3 -18 5 -39 5 -30 0 -261 79 -279 95 -7 6 53 142 71 163 12 13 32 22 49 22 29
0 265 -90 306 -117 13 -8 38 -47 56 -86 l32 -71 18 108 c10 59 16 110 13 112
-3 3 -126 52 -273 111 -148 58 -275 107 -281 110 -10 4 -11 -6 -7 -40z"/>
<path d="M7610 15073 c-24 -4 -430 -192 -430 -199 0 -2 14 -11 31 -20 27 -14
51 -56 171 -302 123 -252 139 -291 135 -324 -3 -21 -4 -38 -3 -38 2 0 92 43
201 96 229 111 284 153 331 257 72 160 23 373 -109 468 -76 55 -215 82 -327
62z m193 -109 c55 -19 124 -82 152 -139 10 -22 21 -65 23 -97 10 -131 -63
-233 -222 -311 -100 -49 -124 -54 -157 -37 -22 12 -219 399 -219 431 0 11 5
29 10 40 11 20 148 94 215 115 56 18 143 17 198 -2z"/>
<path d="M12625 14604 c-292 -215 -337 -243 -394 -244 -37 0 -30 -5 172 -129
l37 -23 -10 27 c-22 58 -14 82 48 131 95 76 78 78 260 -36 121 -76 162 -106
158 -119 -2 -9 -7 -34 -11 -56 -16 -98 -23 -113 -63 -125 -20 -6 -43 -14 -51
-16 -8 -3 27 -30 81 -63 148 -92 137 -89 121 -23 -13 55 -12 68 51 416 36 198
65 361 63 362 -17 13 -169 104 -175 104 -4 0 -133 -93 -287 -206z m324 70 l27
-16 -28 -156 c-15 -85 -30 -157 -32 -159 -3 -4 -184 104 -240 143 -17 11 -7
21 110 108 71 53 131 96 132 96 2 0 16 -7 31 -16z"/>
<path d="M13590 14324 c-1 -16 -6 -39 -13 -51 -22 -39 -409 -454 -438 -468
-15 -8 -37 -15 -48 -15 -14 0 42 -58 177 -182 108 -100 215 -199 237 -220 l41
-38 97 71 c54 39 97 73 95 74 -2 2 -25 -1 -53 -5 -120 -21 -117 -22 -260 110
-71 66 -133 129 -137 141 -12 31 14 77 77 139 l54 53 95 -88 c74 -67 99 -97
108 -128 l12 -40 58 63 c31 35 55 67 52 72 -3 4 -16 8 -30 8 -17 0 -55 28
-124 91 -55 50 -100 94 -100 97 0 4 26 35 58 70 89 96 96 94 294 -93 82 -78
84 -82 91 -203 l2 -44 53 92 c28 51 52 96 52 100 0 4 -80 81 -177 171 -98 90
-199 184 -225 208 l-48 44 0 -29z"/>
<path d="M6404 14270 c-65 -13 -162 -67 -210 -116 -120 -124 -151 -327 -72
-475 119 -225 447 -265 631 -76 123 126 159 312 88 463 -75 160 -249 241 -437
204z m214 -116 c180 -90 217 -326 74 -472 -65 -66 -129 -96 -220 -100 -66 -4
-79 -1 -137 27 -72 36 -117 85 -146 161 -38 100 -13 210 67 299 97 108 246
143 362 85z"/>
<path d="M9710 14274 c-19 -2 -102 -11 -185 -20 -831 -85 -1657 -442 -2300
-993 -845 -724 -1364 -1709 -1487 -2826 -18 -161 -17 -710 0 -870 114 -1020
553 -1928 1268 -2625 624 -608 1400 -1009 2234 -1154 312 -55 374 -60 740 -60
446 -1 681 25 1045 116 1044 260 1942 891 2543 1790 325 486 555 1066 652
1643 47 282 55 386 55 730 0 334 -7 421 -51 695 -187 1166 -880 2230 -1880
2883 -558 365 -1165 585 -1857 673 -116 15 -691 28 -777 18z m770 -58 c575
-69 1141 -254 1630 -535 344 -197 634 -424 930 -727 664 -681 1059 -1515 1177
-2484 22 -182 25 -733 5 -905 -118 -988 -513 -1834 -1172 -2509 -318 -325
-605 -548 -968 -752 -511 -286 -1033 -454 -1637 -525 -149 -18 -710 -18 -875
-1 -733 78 -1439 344 -2030 765 -382 273 -762 657 -1027 1039 -341 493 -581
1071 -687 1658 -50 277 -60 402 -61 755 0 354 11 488 61 765 123 674 415 1324
833 1855 146 185 411 461 586 612 537 460 1200 784 1895 927 147 30 374 63
515 76 152 13 667 4 825 -14z"/>
<path d="M9680 13004 c-179 -17 -360 -65 -470 -126 -149 -82 -304 -230 -377
-359 -24 -41 -55 -113 -69 -159 -23 -73 -27 -103 -28 -215 0 -132 8 -178 46
-265 44 -102 66 -136 133 -205 117 -121 275 -188 530 -225 82 -12 161 -28 175
-35 68 -35 92 -99 70 -182 -18 -68 -26 -74 -84 -73 -67 0 -236 -8 -306 -15
-72 -8 -190 -36 -190 -45 0 -4 -9 -10 -20 -13 -11 -3 -20 -1 -20 4 0 14 -38
11 -187 -16 -274 -50 -395 -92 -568 -196 -188 -112 -299 -221 -331 -324 -10
-30 -18 -105 -21 -190 -4 -119 -1 -167 22 -320 27 -182 55 -326 100 -513 37
-153 144 -485 161 -498 7 -6 11 -14 8 -17 -7 -6 9 -51 53 -149 19 -42 29 -55
42 -51 12 4 13 3 3 -5 -11 -7 -4 -27 31 -98 25 -49 70 -127 101 -174 30 -47
51 -87 45 -88 -5 -2 -18 7 -29 21 -36 46 -184 71 -285 47 -45 -10 -55 -3 -55
47 0 17 -4 35 -10 38 -5 3 -10 16 -10 29 0 57 -79 124 -147 126 -45 0 -63 9
-63 32 0 30 -56 76 -113 93 -69 20 -175 19 -342 -5 -77 -11 -161 -22 -187 -25
-89 -11 -124 -69 -75 -126 24 -30 222 -181 265 -203 47 -24 135 -46 199 -48
49 -2 63 -6 66 -19 7 -25 119 -79 163 -79 l37 0 -21 -23 c-43 -46 -35 -55 186
-211 178 -126 263 -159 400 -155 86 2 103 -10 82 -62 -8 -19 -11 -57 -8 -105
8 -128 60 -179 221 -215 98 -21 337 -43 383 -34 45 8 132 79 150 121 26 61 14
145 -22 167 -8 4 -14 12 -14 17 0 16 64 -11 87 -36 12 -13 28 -24 36 -24 25 0
82 -27 101 -49 18 -20 18 -20 43 10 15 17 34 29 49 29 13 0 24 -2 24 -5 0 -3
-16 -27 -36 -55 -49 -68 -68 -122 -99 -285 -32 -167 -31 -253 5 -334 25 -58
86 -111 125 -111 15 0 63 38 141 112 139 132 214 209 214 220 0 5 23 44 50 88
28 44 50 83 50 87 0 5 10 21 23 37 22 28 25 28 62 16 54 -18 217 -21 310 -5
118 20 656 163 672 178 8 9 -36 85 -81 141 -33 40 -42 57 -33 64 7 5 48 28 93
50 44 22 119 70 167 106 48 36 117 78 154 94 292 126 375 171 592 314 279 186
542 435 747 711 157 211 193 330 181 592 -11 222 -56 377 -135 462 -48 51
-143 107 -233 138 -129 42 -323 46 -451 9 -16 -5 -18 2 -18 45 0 101 -91 232
-223 322 -132 91 -164 110 -217 130 -30 11 -59 24 -65 29 -13 11 -132 49 -245
79 -47 13 -103 30 -125 38 -22 9 -85 19 -140 23 -55 5 -134 13 -175 18 -41 6
-107 12 -145 13 l-70 3 0 86 c0 68 -5 96 -24 140 -18 43 -21 55 -10 59 8 2 43
34 79 71 55 55 73 83 108 163 35 83 42 110 48 195 6 92 5 101 -14 120 -12 12
-40 26 -64 33 -73 20 -220 15 -263 -8 -11 -5 -33 -13 -49 -17 -17 -4 -43 -17
-59 -28 -16 -12 -52 -34 -81 -49 -28 -16 -44 -29 -35 -29 8 0 46 19 85 42 96
58 171 80 275 80 99 1 174 -22 185 -54 18 -58 -35 -252 -94 -344 -40 -62 -105
-124 -157 -151 -16 -9 -32 -17 -34 -19 -1 -1 12 -21 30 -44 33 -41 34 -45 34
-129 -1 -78 -4 -93 -35 -156 -42 -85 -120 -165 -215 -220 -38 -22 -106 -68
-152 -102 l-82 -62 56 72 c135 174 178 380 98 476 l-24 28 35 49 c20 27 42 63
49 81 53 126 0 285 -118 353 -56 32 -91 42 -42 11 82 -50 126 -120 133 -211 6
-85 -6 -122 -74 -221 -30 -43 -54 -83 -54 -88 0 -5 11 -12 25 -15 22 -6 63
-62 52 -72 -10 -11 -236 -14 -242 -5 -3 6 3 31 14 55 90 204 19 483 -170 675
-25 25 -66 63 -92 84 -41 33 -46 43 -52 91 -12 94 42 183 159 262 99 66 161
93 239 102 84 11 119 9 167 -10 50 -19 59 -26 75 -61 9 -18 22 -43 30 -57 9
-14 13 -36 10 -50 -9 -37 -29 -80 -38 -80 -4 0 -12 -11 -17 -24 -6 -17 -25
-30 -61 -44 -77 -28 -77 -46 -2 -40 71 7 115 28 177 86 48 44 103 146 85 157
-5 4 -9 -2 -9 -13 0 -10 -19 -47 -42 -81 -42 -63 -94 -102 -153 -115 l-30 -7
30 19 c58 37 85 86 85 153 0 152 -180 253 -357 200 -83 -25 -206 -94 -279
-156 -37 -32 -63 -65 -84 -109 -58 -123 -36 -195 99 -326 113 -109 143 -152
178 -253 24 -71 27 -98 28 -197 0 -108 -2 -120 -33 -192 -43 -99 -92 -175
-207 -318 -50 -63 -106 -135 -124 -160 -67 -93 -120 -242 -121 -340 -1 -43 -1
-44 -17 -25 -8 11 -33 56 -54 101 -89 187 -69 337 66 479 86 91 151 183 165
233 26 96 0 197 -63 245 -43 32 -134 62 -232 77 -113 16 -271 57 -334 85 -29
14 -57 25 -62 25 -29 0 -209 210 -209 244 0 6 -7 29 -16 52 -11 29 -21 41 -30
37 -8 -3 -14 -1 -14 5 0 6 5 12 10 14 7 2 7 23 -1 63 -6 33 -9 81 -6 107 6 44
4 47 -21 57 -25 9 -25 9 -4 10 12 1 22 7 22 16 0 8 4 15 9 15 5 0 12 17 16 38
10 57 57 161 102 227 190 279 561 429 983 395 316 -25 467 -95 596 -276 55
-77 91 -155 109 -236 l15 -63 -6 88 c-9 135 -69 249 -197 380 -67 68 -136 107
-255 146 -121 39 -345 59 -502 45z m-57 -1872 c4 -2 -9 -23 -30 -46 -127 -141
-161 -195 -182 -287 -14 -59 -14 -160 0 -215 6 -25 10 -46 8 -48 -2 -2 -87
-14 -188 -27 -165 -20 -191 -21 -265 -9 -110 18 -164 35 -192 61 -46 43 -27
96 66 183 70 64 188 126 350 181 l105 36 -95 -4 c-106 -5 -260 -41 -490 -114
-140 -45 -184 -70 -173 -99 7 -18 -66 -24 -76 -6 -7 12 -15 10 -52 -8 -135
-68 -358 -247 -342 -273 3 -6 1 -7 -4 -4 -16 10 0 79 30 130 66 112 295 266
510 342 43 15 133 42 200 60 99 26 122 35 122 50 0 10 6 20 13 23 6 2 12 -3
12 -12 0 -9 8 -16 18 -16 9 1 130 25 267 55 228 49 356 65 388 47z m721 -10
c5 -2 6 -29 3 -59 -8 -81 -66 -186 -170 -311 -51 -61 -104 -126 -119 -145 -32
-41 -46 -44 -230 -50 -113 -4 -118 -3 -118 16 0 22 87 187 104 199 7 5 7 8 1
8 -6 0 -6 3 0 8 6 4 26 27 45 52 18 25 45 57 59 72 59 63 63 67 144 186 l30
44 121 -7 c66 -4 125 -10 130 -13z m604 -42 c87 -11 206 -34 402 -79 47 -11
119 -33 160 -50 41 -17 79 -31 83 -31 4 0 49 -21 100 -46 101 -50 191 -115
281 -202 102 -100 120 -170 66 -255 -16 -26 -33 -47 -37 -48 -5 0 -22 -2 -40
-3 -20 -2 -34 1 -37 10 -3 8 -27 24 -53 35 -48 21 -252 69 -288 68 -11 -1 -65
6 -120 14 -287 45 -748 77 -1105 77 l-214 0 59 61 c34 35 128 106 217 166 173
115 212 152 258 244 l31 61 72 -5 c40 -3 114 -11 165 -17z m-2051 -46 c-3 -3
-12 -4 -19 -1 -8 3 -5 6 6 6 11 1 17 -2 13 -5z m1078 -551 c-12 -28 -18 -143
-8 -143 5 0 36 36 67 81 l58 81 372 -5 c441 -6 781 -33 1124 -88 276 -45 336
-75 260 -132 -58 -44 -262 -156 -329 -181 -124 -46 -195 -74 -254 -101 -33
-15 -82 -33 -110 -41 -133 -34 -205 -51 -205 -46 0 2 -6 0 -12 -6 -7 -5 -40
-13 -73 -17 -33 -4 -70 -11 -82 -16 -96 -36 -865 -43 -1003 -9 -19 4 -120 11
-225 15 -104 4 -192 8 -195 10 -3 2 -59 6 -125 10 -66 3 -142 10 -170 15 -27
5 -90 11 -140 14 -49 3 -91 10 -93 16 -2 5 -18 10 -36 10 -31 0 -121 22 -161
40 -11 4 -33 11 -49 15 -33 7 -136 56 -211 100 -37 22 -46 24 -35 10 15 -18
14 -18 -18 1 -19 10 -62 42 -96 71 -45 36 -67 48 -77 42 -8 -5 -18 -9 -24 -8
-28 0 56 32 185 68 150 42 242 60 440 86 63 8 174 23 245 35 215 33 459 54
463 40 2 -6 26 -44 52 -84 50 -74 275 -301 320 -323 23 -11 276 -118 310 -130
8 -3 -41 36 -110 87 -69 51 -127 96 -130 99 -3 3 -30 25 -60 48 -121 92 -160
157 -160 268 0 65 5 67 137 75 65 4 129 8 142 8 18 2 22 -1 16 -15z m2432 -73
c196 -24 375 -117 431 -227 57 -109 95 -393 74 -542 -26 -186 -72 -264 -331
-574 -65 -78 -227 -236 -279 -273 -25 -18 -22 -24 -47 89 -18 82 -35 101 -35
40 0 -55 -26 -165 -50 -220 l-22 -48 -19 90 c-10 50 -24 101 -30 115 -12 23
-13 18 -20 -51 -7 -67 -37 -179 -58 -217 -5 -8 -12 14 -19 55 -15 88 -31 143
-41 143 -4 0 -11 -32 -14 -72 -5 -59 -54 -234 -63 -225 -1 1 -12 47 -23 101
-11 55 -24 103 -29 108 -5 5 -12 -17 -16 -56 -6 -64 -38 -181 -59 -221 -9 -17
-14 -1 -33 89 -13 60 -27 113 -32 118 -5 5 -12 -20 -15 -60 -7 -75 -42 -199
-60 -219 -10 -10 -179 -83 -192 -83 -7 0 12 46 54 135 53 110 75 162 95 215
15 44 18 46 123 93 60 26 144 71 187 100 44 28 87 57 95 62 9 6 18 12 21 15
17 18 80 60 89 60 6 0 16 9 23 20 7 11 16 20 20 20 11 0 63 46 102 89 17 19
53 59 81 88 27 29 61 71 75 92 14 21 37 56 51 77 66 99 153 274 171 344 46
181 48 204 23 282 -25 76 -76 142 -130 167 -56 26 -105 27 -187 1 -34 -11 -72
-20 -83 -20 -11 0 -30 -7 -42 -15 -22 -16 -153 -65 -172 -65 -6 0 -25 30 -42
68 -29 63 -30 70 -19 118 25 118 28 122 78 144 62 28 171 56 228 59 26 1 89
-3 141 -9z m112 -321 c55 -39 103 -137 102 -207 -1 -120 -106 -370 -231 -547
-75 -107 -214 -254 -322 -342 -80 -65 -281 -188 -286 -175 -1 5 9 35 23 65 14
31 25 62 25 69 0 8 4 18 8 23 5 6 21 53 36 105 15 52 41 138 57 190 16 52 33
115 38 140 6 25 15 63 21 85 56 202 94 365 103 441 10 92 11 92 46 109 81 40
206 74 272 75 58 0 71 -4 108 -31z m-3884 -228 c208 -82 277 -99 470 -116 155
-14 582 -42 755 -50 104 -5 100 -4 70 -17 -38 -16 -620 -27 -695 -12 -33 6
-91 16 -130 23 -38 6 -117 20 -175 32 -58 11 -134 24 -169 29 -77 11 -404 91
-411 101 -3 3 -14 9 -25 13 -11 3 -36 19 -55 36 -19 16 -41 30 -47 30 -7 0
-13 7 -13 15 0 8 -19 28 -42 45 -60 44 -71 62 -51 87 16 19 20 18 187 -67 94
-47 243 -114 331 -149z m3306 167 c19 -39 44 -87 57 -106 20 -30 22 -38 11
-71 -26 -79 -27 -79 -75 1 -24 40 -49 80 -56 89 -9 13 -9 33 1 88 7 39 16 71
20 71 4 0 23 -32 42 -72z m-261 -103 c0 -3 -29 -56 -65 -119 -35 -62 -80 -152
-100 -199 -95 -232 -192 -560 -249 -847 -14 -69 -35 -148 -47 -175 -29 -66
-112 -175 -190 -252 -57 -56 -71 -64 -129 -77 -106 -23 -189 -28 -290 -15 -52
7 -120 15 -150 19 -30 3 -48 9 -40 12 65 26 129 39 215 44 148 8 223 37 307
118 162 157 246 400 291 836 2 19 10 79 16 134 7 54 13 151 14 215 l2 116 195
97 c180 90 220 106 220 93z m144 -118 c28 -42 46 -79 46 -97 0 -37 -76 -271
-162 -500 -67 -177 -95 -240 -108 -240 -4 0 -26 -17 -50 -37 -56 -49 -97 -114
-154 -248 -40 -95 -107 -221 -92 -173 58 190 178 600 220 753 31 111 67 237
81 280 30 92 156 348 166 337 4 -4 27 -38 53 -75z m-1024 10 c0 -31 -4 -34
-40 -29 -33 5 -41 22 -10 22 11 0 20 7 20 15 0 8 7 15 15 15 9 0 15 -9 15 -23z
m-556 -43 c3 -8 2 -12 -4 -9 -6 3 -10 10 -10 16 0 14 7 11 14 -7z m-244 -18
c0 -9 -30 -14 -35 -6 -4 6 3 10 14 10 12 0 21 -2 21 -4z m845 -57 c-8 -23 -8
-23 -16 -4 -4 11 -8 29 -8 40 -1 18 0 18 15 3 11 -11 14 -23 9 -39z m-1595
-110 c46 -8 184 -9 481 -4 228 4 458 3 510 -1 l94 -8 -50 -12 c-27 -7 -76 -13
-107 -13 -32 -1 -58 -5 -58 -11 0 -5 -6 -7 -14 -4 -13 5 -112 -6 -241 -27 -80
-14 -192 -16 -280 -7 -33 4 -116 10 -185 13 -125 7 -270 41 -286 66 -10 16 17
30 46 24 14 -2 54 -10 90 -16z m1540 -33 c0 -3 -4 -8 -10 -11 -5 -3 -10 -1
-10 4 0 6 5 11 10 11 6 0 10 -2 10 -4z m-803 -58 c-3 -8 -6 -5 -6 6 -1 11 2
17 5 13 3 -3 4 -12 1 -19z m-707 -2 c0 -3 -4 -8 -10 -11 -5 -3 -10 -1 -10 4 0
6 5 11 10 11 6 0 10 -2 10 -4z m1210 -5 c0 -5 8 -11 18 -13 13 -3 12 -5 -6
-10 -13 -4 -21 -4 -18 -1 3 4 1 12 -5 20 -9 9 -8 13 0 13 6 0 11 -4 11 -9z
m-1840 -15 c0 -3 -4 -8 -10 -11 -5 -3 -10 -1 -10 4 0 6 5 11 10 11 6 0 10 -2
10 -4z m50 -29 c0 -5 -4 -5 -10 -2 -5 3 -10 14 -10 23 0 15 2 15 10 2 5 -8 10
-19 10 -23z m2050 -1 c0 -11 -19 -15 -25 -6 -3 5 1 10 9 10 9 0 16 -2 16 -4z
m-1164 -43 c-10 -10 -19 5 -10 18 6 11 8 11 12 0 2 -7 1 -15 -2 -18z m902 11
c6 3 13 2 16 -2 6 -10 -43 -36 -51 -28 -3 2 -2 14 2 27 5 15 9 18 15 9 4 -7
12 -10 18 -6z m-1518 -24 c0 -5 -5 -10 -11 -10 -5 0 -7 5 -4 10 3 6 8 10 11
10 2 0 4 -4 4 -10z m1435 -40 c-3 -5 -10 -10 -16 -10 -5 0 -9 5 -9 10 0 6 7
10 16 10 8 0 12 -4 9 -10z m-1095 -30 c0 -5 -4 -10 -10 -10 -5 0 -10 5 -10 10
0 6 5 10 10 10 6 0 10 -4 10 -10z m190 -20 c0 -5 -5 -10 -11 -10 -5 0 -7 5 -4
10 3 6 8 10 11 10 2 0 4 -4 4 -10z m895 -20 c3 -5 1 -10 -4 -10 -6 0 -11 5
-11 10 0 6 2 10 4 10 3 0 8 -4 11 -10z m632 -62 c-3 -8 -6 -5 -6 6 -1 11 2 17
5 13 3 -3 4 -12 1 -19z m-52 2 c-3 -5 -11 -10 -16 -10 -6 0 -7 5 -4 10 3 6 11
10 16 10 6 0 7 -4 4 -10z m-2460 -30 c3 -5 1 -10 -4 -10 -6 0 -11 5 -11 10 0
6 2 10 4 10 3 0 8 -4 11 -10z m559 -75 c4 -10 -1 -15 -15 -15 -17 0 -18 2 -7
15 16 18 15 18 22 0z m-704 -45 c0 -13 -11 -13 -30 0 -12 8 -11 10 8 10 12 0
22 -4 22 -10z m275 -20 c-3 -5 -11 -10 -16 -10 -6 0 -7 5 -4 10 3 6 11 10 16
10 6 0 7 -4 4 -10z m1505 -40 c-24 -15 -36 -11 -14 4 10 8 21 12 24 10 2 -3
-2 -9 -10 -14z m316 -107 c-10 -10 -19 5 -10 18 6 11 8 11 12 0 2 -7 1 -15 -2
-18z m-1840 -41 c51 -27 117 -76 169 -125 80 -74 88 -79 98 -61 32 58 102 98
136 77 31 -18 61 -94 61 -155 0 -31 4 -59 9 -62 4 -3 19 6 31 19 36 38 48 32
52 -26 4 -63 -10 -99 -62 -155 -22 -24 -40 -48 -40 -54 0 -18 -29 -11 -40 10
-11 21 -40 26 -56 10 -6 -6 -24 -3 -51 11 -38 19 -43 26 -63 92 -11 40 -25 83
-31 97 l-9 25 5 -26 c2 -14 8 -58 11 -99 l7 -72 -23 12 c-20 11 -25 10 -36 -5
-11 -15 -15 -10 -29 41 -36 137 -49 172 -83 234 -43 78 -100 164 -136 205 -15
17 -32 38 -37 48 -9 17 -8 18 12 12 13 -4 60 -28 105 -53z m1863 -55 c8 -11 5
-16 -15 -25 -31 -15 -34 -15 -34 -2 0 6 7 10 16 10 10 0 14 6 10 15 -7 19 8
20 23 2z m-1244 -26 c-3 -6 -11 -11 -17 -11 -6 0 -6 6 2 15 14 17 26 13 15 -4z
m975 -11 c0 -5 -4 -10 -10 -10 -5 0 -10 5 -10 10 0 6 5 10 10 10 6 0 10 -4 10
-10z m-2419 -58 c31 -11 71 -28 90 -37 49 -26 135 -93 152 -118 15 -24 28 -67
20 -67 -3 0 -36 29 -73 64 -110 104 -207 140 -425 161 -177 17 -177 24 0 20
147 -3 190 -7 236 -23z m2219 -5 c0 -8 -16 -63 -35 -123 -52 -162 -65 -300
-38 -412 4 -18 8 -21 14 -10 7 10 9 10 8 -2 0 -8 -4 -24 -8 -35 -7 -18 -10
-17 -29 15 -31 54 -83 113 -125 143 -28 20 -35 23 -28 10 5 -10 19 -27 32 -38
12 -11 37 -44 56 -72 18 -29 38 -53 43 -53 6 0 10 -4 10 -10 0 -5 -9 -10 -19
-10 -27 0 -34 -15 -16 -30 13 -11 10 -16 -25 -31 -38 -17 -54 -39 -28 -39 6 0
9 -2 6 -5 -5 -6 -90 23 -158 53 -25 11 -80 28 -122 38 -76 18 -78 19 -84 52
-18 97 28 203 98 224 29 9 37 15 32 27 -14 35 -14 47 5 77 19 32 92 74 127 74
10 0 31 -7 46 -14 25 -13 29 -13 37 2 5 9 12 36 16 59 7 47 12 52 86 93 57 32
99 39 99 17z m1040 -11 c0 -13 -7 -26 -15 -30 -11 -4 -15 1 -15 18 0 12 3 26
7 29 13 14 23 6 23 -17z m-1790 -70 c0 -3 -4 -8 -10 -11 -5 -3 -10 -1 -10 4 0
6 5 11 10 11 6 0 10 -2 10 -4z m820 -59 c0 -21 -16 -91 -35 -154 -27 -90 -35
-133 -35 -197 -1 -73 -2 -79 -15 -62 -18 24 -20 123 -4 181 6 22 27 80 46 130
27 68 34 99 30 129 -4 26 -2 35 4 25 5 -7 9 -31 9 -52z m814 47 c9 -22 -3 -32
-14 -14 -12 19 -12 30 -1 30 5 0 12 -7 15 -16z m-44 2 c0 -2 -7 -7 -16 -10 -8
-3 -12 -2 -9 4 6 10 25 14 25 6z m-1668 -216 c3 -16 1 -30 -4 -30 -4 0 -8 14
-8 30 0 17 2 30 4 30 2 0 6 -13 8 -30z m76 10 c-6 -15 -139 -130 -150 -130 -7
0 7 14 29 30 23 17 50 48 59 68 13 26 25 37 42 38 12 1 22 -2 20 -6z m1242
-42 c-6 -13 -13 -31 -16 -40 -4 -10 -16 -18 -28 -18 -12 0 -27 -5 -34 -12 -8
-8 -12 -9 -12 -1 0 6 -2 18 -5 25 -4 10 7 19 35 28 22 7 45 19 51 27 17 19 20
16 9 -9z m-2241 -34 c123 -20 272 -76 305 -113 29 -32 13 -36 -31 -7 -76 50
-275 104 -413 114 -69 4 -87 8 -65 13 31 7 143 4 204 -7z m1835 -21 c-18 -101
-41 -185 -48 -174 -5 7 4 57 19 112 28 101 41 129 29 62z m-774 -59 c0 -8 -4
-12 -10 -9 -5 3 -10 10 -10 16 0 5 5 9 10 9 6 0 10 -7 10 -16z m-910 -50 c41
-9 90 -24 110 -34 45 -25 36 -24 -53 0 -40 12 -123 24 -187 27 -73 5 -104 9
-85 13 53 12 138 9 215 -6z m467 -31 c-45 -78 -21 -241 50 -325 38 -46 107
-102 138 -111 15 -5 14 -3 -5 10 -78 52 -170 185 -170 245 0 17 5 13 29 -19
16 -23 45 -52 63 -65 58 -43 65 -43 15 2 -77 68 -105 140 -72 187 18 26 99 54
163 56 46 2 47 1 70 -43 17 -35 22 -61 22 -127 l0 -83 39 -20 c107 -54 109
-165 5 -226 -49 -29 -92 -32 -239 -19 -201 18 -302 52 -337 112 -28 48 -34
122 -13 167 17 35 17 40 1 73 -28 59 -31 114 -7 144 25 32 134 65 258 78 8 1
4 -13 -10 -36z m-307 -103 c0 -5 -7 -10 -15 -10 -8 0 -15 5 -15 10 0 6 7 10
15 10 8 0 15 -4 15 -10z m2074 -15 c95 -15 196 -52 261 -96 84 -56 174 -165
143 -173 -7 -1 -35 -11 -63 -20 -168 -59 -274 -94 -305 -101 -19 -4 -64 -16
-100 -27 -96 -29 -172 -40 -290 -40 -148 -1 -162 4 -207 69 -28 39 -29 48 -5
38 9 -4 62 -11 117 -16 137 -10 534 23 500 43 -6 3 -37 2 -70 -3 -270 -35
-379 -35 -442 0 -21 12 -58 27 -83 34 -28 8 -46 19 -48 31 -3 16 -1 16 35 -2
47 -24 99 -31 233 -33 89 -1 230 11 305 27 84 17 169 42 149 43 -6 1 -55 -6
-110 -14 -110 -17 -444 -21 -507 -6 -82 20 -124 74 -90 119 25 33 69 54 208
100 138 45 220 52 369 27z m-634 -178 c0 -128 -101 -344 -228 -489 -38 -44
-34 -41 27 17 39 39 86 92 103 118 34 53 77 77 139 77 22 0 39 -2 39 -4 0 -11
-155 -245 -178 -270 -15 -15 -84 -77 -154 -138 -100 -85 -132 -108 -148 -103
-26 8 -27 53 -1 126 22 66 67 157 90 183 15 18 15 18 -6 7 -12 -6 -40 -48 -63
-93 -22 -45 -51 -98 -62 -117 l-22 -35 -13 30 c-18 44 -16 106 12 254 28 146
53 222 96 285 33 49 105 117 148 139 44 23 129 45 179 45 41 1 42 0 42 -32z"/>
<path d="M10525 10420 c4 -7 2 -16 -6 -21 -17 -10 -21 -8 136 -50 66 -17 144
-32 172 -33 29 0 55 -6 57 -12 3 -7 37 -15 78 -19 167 -15 284 -48 295 -82 7
-19 -88 -74 -162 -93 -63 -16 -238 -39 -335 -45 -219 -12 -281 -19 -349 -41
-40 -14 -112 -28 -160 -32 l-86 -8 150 -17 150 -18 150 30 c83 16 209 35 280
41 330 28 531 87 651 193 78 69 56 95 -106 126 -223 43 -411 62 -649 67 -136
3 -242 9 -254 15 -15 8 -18 8 -12 -1z"/>
<path d="M10176 10361 c5 -4 50 -13 99 -20 202 -27 304 -44 370 -61 68 -18
107 -23 169 -21 83 3 -67 48 -284 86 -142 25 -376 36 -354 16z"/>
<path d="M8235 10202 c55 -59 89 -83 79 -57 -4 8 -10 15 -14 15 -4 0 -18 10
-31 23 -60 56 -79 67 -34 19z"/>
<path d="M9585 10149 c25 -34 45 -64 45 -69 0 -4 23 -19 50 -34 28 -15 58 -36
68 -46 23 -24 96 -47 173 -55 l64 -6 -62 24 c-35 14 -77 35 -95 49 -18 13 -64
42 -103 65 -38 23 -94 62 -123 87 -30 25 -56 46 -58 46 -2 0 16 -27 41 -61z"/>
<path d="M12205 10234 c-73 -19 -132 -71 -115 -103 9 -18 13 -18 102 10 51 16
130 34 176 41 84 12 84 12 139 -17 63 -33 143 -122 186 -207 l27 -53 -26 -115
c-14 -63 -37 -149 -50 -190 -13 -41 -22 -76 -20 -78 10 -10 77 123 95 188 32
119 72 273 77 300 4 19 -9 44 -56 108 -33 45 -66 82 -73 83 -18 1 -61 8 -181
30 -129 22 -199 23 -281 3z"/>
<path d="M8960 12367 c-31 -69 -35 -131 -15 -222 20 -92 58 -169 97 -198 16
-12 28 -26 28 -31 0 -6 11 -24 25 -41 l25 -30 -6 30 c-4 17 -20 58 -36 93 -16
35 -27 70 -24 78 3 8 -6 32 -20 53 -59 90 -85 205 -60 266 23 55 10 57 -14 2z"/>
<path d="M8990 11920 c6 -11 33 -46 60 -79 54 -65 150 -128 255 -167 33 -12
75 -30 93 -39 17 -9 61 -21 97 -26 36 -5 104 -16 152 -24 95 -17 171 -19 191
-6 19 11 -51 28 -174 41 -115 13 -165 25 -214 50 -19 11 -69 26 -110 35 -108
23 -202 76 -288 162 -40 40 -68 64 -62 53z"/>
<path d="M10328 11863 c7 -3 16 -2 19 1 4 3 -2 6 -13 5 -11 0 -14 -3 -6 -6z"/>
<path d="M7865 9248 c69 -51 99 -96 205 -316 l110 -225 0 -80 0 -79 27 7 c16
4 29 8 30 9 1 1 -5 47 -13 101 -16 97 -50 175 -69 157 -4 -4 -6 0 -3 8 3 8 -6
39 -19 69 -13 30 -30 78 -36 107 -11 46 -23 64 -102 146 -58 60 -103 99 -125
106 l-35 12 30 -22z"/>
<path d="M8147 8934 c3 -10 24 -48 46 -83 37 -58 41 -71 49 -164 4 -55 10
-102 12 -104 2 -2 16 -5 32 -6 29 -2 29 -2 26 48 -5 66 -45 166 -97 241 -49
68 -80 100 -68 68z"/>
<path d="M7042 8341 c-10 -6 -8 -10 10 -16 12 -4 25 -8 28 -10 67 -29 127 -43
215 -50 50 -3 137 -13 195 -21 97 -13 430 -29 430 -20 0 2 -22 18 -50 36 -40
26 -61 32 -112 34 -120 5 -363 27 -464 41 -112 17 -232 19 -252 6z"/>
<path d="M11735 8168 c-165 -89 -252 -147 -325 -215 -63 -58 -125 -146 -115
-163 3 -5 2 -10 -3 -10 -5 0 -9 -7 -9 -15 0 -30 24 -13 85 60 89 106 145 149
414 314 81 50 115 77 111 87 -3 8 -10 14 -17 13 -6 0 -69 -32 -141 -71z"/>
<path d="M7173 8223 c-7 -2 -13 -13 -13 -23 0 -26 18 -37 85 -49 129 -22 206
-27 575 -36 175 -4 262 -3 255 4 -15 14 -105 52 -105 43 0 -4 -4 -1 -9 7 -7
10 -55 14 -217 18 -115 2 -283 13 -374 23 -175 21 -178 21 -197 13z"/>
<path d="M11523 8180 c-72 -35 -94 -53 -195 -160 -113 -121 -147 -172 -148
-222 0 -25 22 -58 39 -58 5 0 11 17 15 38 14 89 181 291 311 377 47 31 85 58
85 60 0 12 -31 2 -107 -35z"/>
<path d="M7940 8067 c-3 -3 -108 -8 -235 -12 -126 -4 -232 -9 -234 -10 -8 -9
89 -27 153 -28 168 -4 546 4 546 11 0 19 -59 35 -140 40 -47 2 -87 2 -90 -1z"/>
<path d="M12545 7809 c-11 -4 -33 -8 -50 -8 -16 -1 -43 -10 -60 -21 -50 -34
-90 -39 -360 -44 -143 -3 -291 -8 -330 -11 -38 -2 -144 -7 -235 -11 -91 -3
-211 -7 -267 -9 -69 -3 -110 -9 -126 -19 -12 -9 -68 -23 -122 -32 -98 -16
-125 -26 -125 -47 0 -9 135 -8 985 9 160 4 381 9 493 13 126 4 207 2 213 -4 6
-6 22 4 45 27 l36 36 -13 52 c-15 57 -47 84 -84 69z"/>
<path d="M10768 7589 c-57 -37 -103 -104 -124 -179 -11 -38 -29 -69 -59 -100
-44 -46 -73 -96 -95 -164 -7 -21 -30 -56 -51 -78 -36 -37 -50 -68 -31 -68 12
0 84 78 124 135 20 28 45 59 57 69 11 10 23 31 26 47 4 16 26 54 51 85 24 32
44 65 44 73 0 31 48 116 84 150 33 32 47 61 29 61 -5 0 -29 -14 -55 -31z"/>
<path d="M9456 7601 c-4 -5 -23 -15 -44 -22 -60 -20 -292 -134 -352 -174 -60
-40 -45 -39 65 5 39 15 117 46 175 69 139 55 149 61 166 93 13 25 3 51 -10 29z"/>
<path d="M10695 7596 c-20 -9 -45 -38 -78 -92 -26 -43 -66 -106 -87 -139 -73
-111 -112 -180 -131 -229 -35 -87 -10 -62 36 37 27 59 64 118 93 150 26 28 64
82 86 119 21 37 61 90 88 117 50 51 48 61 -7 37z"/>
<path d="M8755 7580 c-11 -5 -33 -9 -49 -9 -35 -1 -320 -85 -380 -112 -33 -14
-37 -19 -23 -25 36 -14 129 6 324 67 109 34 200 64 203 66 7 6 -23 23 -40 22
-8 0 -24 -4 -35 -9z"/>
<path d="M8895 7547 c19 -15 19 -16 -18 -32 -21 -8 -75 -22 -120 -31 -45 -8
-145 -35 -222 -58 -77 -24 -165 -51 -195 -60 -56 -16 -172 -96 -120 -82 14 3
48 11 75 17 28 6 87 24 132 39 45 16 159 50 255 75 182 49 376 111 393 126 5
5 -8 9 -32 9 -22 0 -69 3 -104 6 -59 6 -62 5 -44 -9z"/>
<path d="M9388 7490 c-43 -22 -157 -93 -255 -159 -98 -65 -207 -134 -242 -152
-36 -19 -87 -46 -115 -61 l-51 -26 45 -7 c58 -8 121 14 265 93 171 94 375 216
375 224 0 4 6 8 14 8 15 0 21 14 30 60 2 14 7 33 11 43 9 22 14 23 -77 -23z"/>
<path d="M9378 7332 c-48 -31 -118 -76 -155 -99 -107 -66 -224 -156 -215 -165
13 -13 204 70 325 141 l111 66 12 58 c6 31 11 57 10 57 -1 -1 -40 -27 -88 -58z"/>
<path d="M14280 13635 c-11 -33 -106 -111 -496 -407 -7 -5 -31 -12 -54 -16
l-42 -7 197 -255 c108 -140 199 -255 202 -254 2 0 50 25 106 55 l101 54 -83 8
c-46 4 -90 11 -98 16 -8 4 -62 68 -119 142 -119 154 -125 175 -71 226 17 17
124 101 237 188 113 86 209 161 214 166 7 6 -68 119 -79 119 -2 0 -9 -16 -15
-35z"/>
<path d="M6164 13335 c4 -16 9 -59 12 -95 l5 -65 -101 -130 c-107 -137 -143
-166 -182 -148 -13 6 -125 90 -251 187 -125 97 -231 176 -236 176 -5 0 -27
-25 -50 -55 l-42 -55 35 0 c37 0 45 -5 386 -268 139 -107 158 -126 175 -173
10 -26 15 -21 180 194 94 121 183 238 199 259 l28 39 -82 82 c-73 73 -81 79
-76 52z"/>
<path d="M5163 8110 c-98 -39 -149 -126 -124 -211 20 -67 103 -147 122 -118 6
10 -1 21 -22 37 -33 26 -69 90 -69 122 0 30 25 75 56 99 44 34 130 55 173 42
70 -20 120 -105 107 -177 -6 -29 -4 -34 13 -34 15 0 22 9 26 33 12 64 -28 156
-87 200 -40 30 -129 33 -195 7z"/>
<path d="M14582 8063 c-8 -15 13 -47 122 -185 157 -199 145 -186 156 -168 14
22 13 24 -25 70 -39 47 -41 28 21 169 l28 63 53 -4 c46 -4 56 -2 64 14 6 11 9
21 7 22 -2 2 -84 8 -183 15 -99 7 -192 14 -207 17 -19 4 -29 0 -36 -13z m191
-40 c77 -7 75 0 28 -104 l-28 -61 -66 81 c-37 44 -67 83 -67 86 0 7 50 6 133
-2z"/>
<path d="M14296 7753 c-15 -16 15 -113 36 -113 11 0 10 13 -3 66 -12 45 -21
59 -33 47z"/>
<path d="M14361 7622 c-9 -17 8 -31 156 -132 128 -87 167 -110 174 -99 5 8 9
19 9 24 -1 9 -295 214 -320 223 -5 2 -13 -5 -19 -16z"/>
<path d="M5470 7504 c-102 -7 -195 -13 -208 -13 -20 -1 -21 -4 -11 -22 10 -19
17 -21 68 -16 l58 5 53 -90 53 -89 -32 -40 c-22 -27 -30 -46 -26 -59 4 -11 9
-20 13 -19 4 0 25 23 48 52 23 29 80 100 128 159 67 83 86 112 81 128 -3 11
-14 19 -23 19 -9 -1 -100 -8 -202 -15z m170 -30 c0 -12 -123 -155 -131 -152
-10 3 -89 131 -85 136 2 1 45 6 97 11 52 4 100 9 107 10 6 0 12 -2 12 -5z"/>
<path d="M14154 7272 c-25 -20 -124 -155 -124 -169 0 -6 59 -59 132 -119 175
-144 168 -140 179 -123 14 22 12 24 -56 79 l-64 53 32 45 c54 75 64 78 153 48
72 -24 78 -25 90 -8 7 9 10 20 6 23 -13 12 -111 40 -147 42 -34 2 -35 3 -35
41 0 54 -52 106 -106 106 -22 0 -48 -8 -60 -18z m106 -46 c12 -14 23 -36 23
-50 0 -24 -78 -156 -92 -156 -3 0 -30 22 -59 48 l-53 47 36 49 c19 27 42 57
51 68 24 25 66 23 94 -6z"/>
<path d="M5850 7063 c-39 -35 -42 -80 -11 -164 27 -70 27 -104 -1 -123 -33
-24 -54 -20 -91 17 -33 34 -50 66 -61 120 -5 18 -13 27 -27 27 -18 0 -19 -4
-13 -37 8 -51 45 -113 89 -152 49 -43 104 -43 146 -2 35 36 36 57 4 151 -14
40 -25 81 -25 90 0 27 46 63 72 57 39 -10 86 -68 100 -122 15 -61 12 -57 32
-49 22 9 20 40 -8 100 -28 61 -80 104 -134 111 -33 4 -44 1 -72 -24z"/>
<path d="M13761 6779 l-82 -90 40 -47 c22 -26 84 -91 138 -145 l99 -98 82 93
c66 74 79 94 70 106 -10 12 -24 1 -83 -63 l-70 -76 -49 50 -50 50 19 23 c11
13 39 44 64 70 28 30 42 52 38 62 -4 9 -10 16 -15 16 -5 0 -37 -31 -71 -69
l-61 -70 -45 48 c-25 27 -45 52 -45 58 0 5 16 25 36 44 20 18 49 50 65 70 24
30 26 39 15 48 -10 9 -30 -8 -95 -80z"/>
<path d="M6195 6524 c-115 -36 -212 -68 -214 -70 -3 -3 2 -11 10 -19 13 -13
22 -13 73 2 l58 16 71 -71 71 -71 -24 -51 c-22 -47 -22 -52 -7 -67 15 -15 23
-2 106 171 73 151 89 192 80 207 -5 10 -11 19 -12 18 -1 0 -96 -29 -212 -65z
m175 1 c0 -10 -85 -175 -90 -175 -3 0 -32 27 -64 59 l-59 59 94 30 c95 31 119
36 119 27z"/>
<path d="M13321 6336 c-10 -12 9 -42 104 -165 64 -83 119 -152 123 -155 4 -2
48 33 97 79 72 67 88 86 78 96 -14 14 -21 9 -114 -79 l-46 -44 -108 139 c-58
76 -110 139 -114 141 -5 1 -13 -4 -20 -12z"/>
<path d="M12983 6065 l-102 -75 104 -167 c57 -93 107 -167 112 -165 24 9 193
139 193 149 0 29 -24 20 -101 -37 l-82 -61 -37 63 -38 62 79 59 c63 47 77 62
68 73 -9 11 -22 6 -71 -29 -32 -23 -67 -48 -78 -55 -17 -12 -22 -8 -54 42 -20
31 -36 58 -36 59 0 2 36 30 80 62 84 62 84 62 72 82 -6 9 -37 -9 -109 -62z"/>
<path d="M6954 5928 c-45 -57 -100 -126 -123 -154 l-41 -51 58 -40 c125 -88
191 -103 267 -60 76 43 135 151 121 221 -9 43 -49 91 -116 136 -33 22 -65 43
-72 45 -8 3 -47 -38 -94 -97z m211 -40 c23 -28 27 -39 23 -80 -4 -34 -14 -60
-35 -85 -73 -91 -132 -102 -229 -41 -32 20 -58 43 -58 51 1 8 43 66 95 129
l94 116 41 -29 c23 -16 54 -43 69 -61z"/>
<path d="M12523 5762 c-72 -43 -132 -80 -133 -85 -6 -30 11 -30 69 1 l61 34
77 -161 c42 -89 79 -161 82 -161 3 0 13 4 21 10 12 7 2 35 -59 162 -40 84 -75
158 -77 163 -3 6 22 26 55 45 52 28 59 36 50 52 -5 10 -11 18 -12 17 -1 0 -61
-35 -134 -77z"/>
<path d="M7470 5535 c-56 -90 -102 -167 -101 -172 2 -15 201 -115 216 -109 27
10 16 21 -75 69 l-90 48 36 57 c20 31 38 58 39 60 1 2 42 -16 89 -40 73 -36
88 -40 96 -28 7 11 -7 24 -68 57 -42 24 -81 44 -86 46 -10 3 59 117 71 117 3
0 44 -20 90 -45 46 -25 88 -43 93 -40 24 15 2 34 -99 86 l-109 57 -102 -163z"/>
<path d="M12025 5511 c-90 -41 -122 -128 -71 -188 24 -27 26 -28 133 -28 59 0
114 -4 121 -8 18 -12 15 -71 -5 -89 -36 -32 -83 -48 -138 -48 -48 0 -55 -2
-55 -20 0 -18 7 -20 55 -20 105 0 205 67 205 138 0 30 -25 78 -45 86 -9 3 -63
6 -121 6 -100 0 -104 1 -120 26 -39 59 42 130 139 121 44 -4 48 -2 45 17 -3
18 -11 21 -53 24 -32 1 -64 -5 -90 -17z"/>
<path d="M8349 5329 c-9 -17 -3 -21 52 -36 34 -9 63 -22 65 -28 2 -5 -23 -77
-56 -160 -33 -82 -60 -154 -60 -161 0 -11 29 -28 36 -22 1 2 30 73 64 158 34
85 65 159 70 164 4 4 33 1 63 -8 69 -20 79 -20 75 1 -2 12 -45 30 -151 64
-140 44 -148 46 -158 28z"/>
<path d="M11478 5303 c-9 -3 -19 -12 -22 -21 -14 -48 -76 -415 -71 -420 15
-15 40 20 50 68 l10 54 90 27 c50 15 95 28 101 28 6 1 23 -17 38 -39 24 -36
52 -50 69 -34 5 5 -216 310 -242 335 -3 3 -14 4 -23 2z m72 -134 c28 -40 54
-77 56 -84 3 -7 -22 -20 -71 -34 -42 -13 -78 -21 -80 -20 -3 4 23 173 30 197
3 6 6 12 8 12 3 0 28 -32 57 -71z"/>
<path d="M9090 5235 c-26 -27 -30 -35 -17 -35 20 0 97 49 97 61 0 22 -49 6
-80 -26z"/>
<path d="M8877 5017 c-26 -94 -50 -181 -53 -192 -5 -19 4 -23 116 -44 66 -13
123 -21 127 -18 18 19 -14 35 -100 51 l-95 18 19 65 c10 36 20 68 23 70 2 3
39 -2 81 -11 100 -21 117 -21 113 1 -2 10 -17 20 -38 24 -19 4 -60 12 -91 19
l-57 11 18 61 c11 33 21 63 24 65 3 3 43 -2 88 -11 46 -9 91 -16 101 -16 25 0
21 29 -5 35 -22 5 -219 45 -222 45 0 0 -23 -78 -49 -173z"/>
<path d="M10830 5148 c-30 -6 -56 -11 -58 -13 -4 -3 25 -307 34 -362 4 -25 10
-33 26 -33 19 0 20 3 13 90 -8 101 -20 88 99 111 100 19 132 67 111 166 -11
49 -96 64 -225 41z m165 -43 c14 -13 25 -36 25 -50 0 -46 -40 -70 -151 -90
l-36 -7 -6 54 c-12 96 -13 94 46 105 82 16 96 15 122 -12z"/>
<path d="M9859 5051 c-34 -35 -38 -73 -10 -115 l20 -29 -45 -43 c-37 -37 -44
-49 -44 -83 0 -64 33 -93 108 -99 49 -3 67 0 100 18 l40 22 30 -22 c29 -22 62
-22 62 -1 0 5 -16 19 -35 31 -19 12 -35 23 -35 24 0 2 7 16 15 33 8 17 19 51
24 77 8 45 7 47 -13 44 -14 -2 -22 -11 -24 -28 -2 -14 -8 -41 -14 -60 l-11
-34 -47 53 -47 53 40 38 c51 47 55 90 13 127 -39 33 -89 31 -127 -6z m111 -30
c22 -42 -40 -110 -74 -82 -20 17 -28 58 -16 81 15 27 75 28 90 1z m-18 -210
c46 -57 47 -59 28 -76 -24 -22 -91 -31 -119 -16 -30 17 -43 54 -30 89 10 28
46 62 64 61 6 0 31 -26 57 -58z"/>
</g>
</svg>
